<svg width="68" height="12" viewBox="0 0 68 12" fill="none" xmlns="http://www.w3.org/2000/svg">
<path opacity="0.35" d="M43.5032 2.99934C43.5032 1.80272 44.4732 0.832672 45.6698 0.832672H62.3365C63.5331 0.832672 64.5032 1.80272 64.5032 2.99934V8.99934C64.5032 10.196 63.5331 11.166 62.3365 11.166H45.6698C44.4732 11.166 43.5032 10.196 43.5032 8.99934V2.99934Z" stroke="black"/>
<path opacity="0.4" d="M66.0032 3.99933V7.99933C66.8079 7.66055 67.3312 6.87246 67.3312 5.99933C67.3312 5.1262 66.8079 4.33811 66.0032 3.99933Z" fill="black"/>
<path d="M45.0032 3.43267C45.0032 2.82516 45.4957 2.33267 46.1032 2.33267H61.9032C62.5107 2.33267 63.0032 2.82516 63.0032 3.43267V8.566C63.0032 9.17352 62.5107 9.66601 61.9032 9.66601H46.1032C45.4957 9.66601 45.0032 9.17352 45.0032 8.56601V3.43267Z" fill="black"/>
<path fill-rule="evenodd" clip-rule="evenodd" d="M30.3337 2.60731C32.5496 2.60741 34.6808 3.45885 36.2867 4.98565C36.4077 5.10352 36.601 5.10203 36.7201 4.98231L37.8761 3.81565C37.9364 3.75493 37.97 3.67267 37.9695 3.58709C37.969 3.50151 37.9344 3.41966 37.8734 3.35965C33.6583 -0.6799 27.0085 -0.6799 22.7934 3.35965C22.7324 3.41962 22.6977 3.50144 22.6972 3.58702C22.6966 3.6726 22.7302 3.75488 22.7904 3.81565L23.9467 4.98231C24.0658 5.10222 24.2592 5.1037 24.3801 4.98565C25.9862 3.45875 28.1176 2.60731 30.3337 2.60731ZM30.3337 6.40298C31.5512 6.40291 32.7253 6.85544 33.6277 7.67265C33.7498 7.78863 33.9421 7.78611 34.0611 7.66698L35.2157 6.50031C35.2766 6.43912 35.3103 6.3561 35.3094 6.26984C35.3085 6.18357 35.2731 6.10126 35.2111 6.04131C32.4629 3.48493 28.2069 3.48493 25.4587 6.04131C25.3967 6.10126 25.3613 6.18361 25.3604 6.26991C25.3596 6.3562 25.3935 6.43921 25.4544 6.50031L26.6087 7.66698C26.7277 7.78611 26.92 7.78863 27.0421 7.67265C27.944 6.85598 29.1171 6.40348 30.3337 6.40298ZM32.6467 8.9568C32.6485 9.04331 32.6145 9.12671 32.5527 9.18731L30.5554 11.203C30.4969 11.2622 30.417 11.2956 30.3337 11.2956C30.2505 11.2956 30.1706 11.2622 30.1121 11.203L28.1144 9.18731C28.0527 9.12666 28.0188 9.04323 28.0206 8.95673C28.0224 8.87022 28.0599 8.7883 28.1241 8.73031C29.3997 7.65143 31.2678 7.65143 32.5434 8.73031C32.6076 8.78835 32.645 8.87029 32.6467 8.9568Z" fill="black"/>
<path fill-rule="evenodd" clip-rule="evenodd" d="M16.67 0.665924H15.67C15.1178 0.665924 14.67 1.11364 14.67 1.66592V10.3326C14.67 10.8849 15.1178 11.3326 15.67 11.3326H16.67C17.2223 11.3326 17.67 10.8849 17.67 10.3326V1.66592C17.67 1.11364 17.2223 0.665924 16.67 0.665924ZM11.0034 2.99926H12.0034C12.5557 2.99926 13.0034 3.44697 13.0034 3.99926V10.3326C13.0034 10.8849 12.5557 11.3326 12.0034 11.3326H11.0034C10.4511 11.3326 10.0034 10.8849 10.0034 10.3326V3.99926C10.0034 3.44697 10.4511 2.99926 11.0034 2.99926ZM7.33671 5.33259H6.33671C5.78443 5.33259 5.33671 5.78031 5.33671 6.33259V10.3326C5.33671 10.8849 5.78443 11.3326 6.33671 11.3326H7.33671C7.889 11.3326 8.33671 10.8849 8.33671 10.3326V6.33259C8.33671 5.78031 7.889 5.33259 7.33671 5.33259ZM2.67004 7.33259H1.67004C1.11776 7.33259 0.670044 7.78031 0.670044 8.33259V10.3326C0.670044 10.8849 1.11776 11.3326 1.67004 11.3326H2.67004C3.22233 11.3326 3.67004 10.8849 3.67004 10.3326V8.33259C3.67004 7.78031 3.22233 7.33259 2.67004 7.33259Z" fill="black"/>
</svg>
